<svg width="139" height="69" viewBox="0 0 139 69" fill="none" xmlns="http://www.w3.org/2000/svg">
<path d="M61.64 46.6039C58.568 46.6039 56.1573 45.7399 54.408 44.0119C52.68 42.2839 51.816 39.7879 51.816 36.5239V23.8839H55.976V36.3639C55.976 38.6679 56.4667 40.3425 57.448 41.3879C58.4507 42.4332 59.8587 42.9559 61.672 42.9559C63.4853 42.9559 64.8827 42.4332 65.864 41.3879C66.8453 40.3425 67.336 38.6679 67.336 36.3639V23.8839H71.432V36.5239C71.432 39.7879 70.5573 42.2839 68.808 44.0119C67.08 45.7399 64.6907 46.6039 61.64 46.6039ZM77.258 46.2839V23.8839H81.418V42.7639H93.13V46.2839H77.258ZM105.734 46.6039C102.662 46.6039 100.251 45.7399 98.5018 44.0119C96.7738 42.2839 95.9098 39.7879 95.9098 36.5239V23.8839H100.07V36.3639C100.07 38.6679 100.56 40.3425 101.542 41.3879C102.544 42.4332 103.952 42.9559 105.766 42.9559C107.579 42.9559 108.976 42.4332 109.958 41.3879C110.939 40.3425 111.43 38.6679 111.43 36.3639V23.8839H115.526V36.5239C115.526 39.7879 114.651 42.2839 112.902 44.0119C111.174 45.7399 108.784 46.6039 105.734 46.6039ZM128.296 46.6039C126.546 46.6039 124.872 46.3585 123.272 45.8679C121.672 45.3559 120.402 44.7052 119.464 43.9159L120.904 40.6839C121.8 41.3879 122.909 41.9745 124.232 42.4439C125.554 42.9132 126.909 43.1479 128.296 43.1479C129.469 43.1479 130.418 43.0199 131.144 42.7639C131.869 42.5079 132.402 42.1665 132.744 41.7399C133.085 41.2919 133.256 40.7905 133.256 40.2359C133.256 39.5532 133.01 39.0092 132.52 38.6039C132.029 38.1772 131.389 37.8465 130.6 37.6119C129.832 37.3559 128.968 37.1212 128.008 36.9079C127.069 36.6945 126.12 36.4492 125.16 36.1719C124.221 35.8732 123.357 35.4999 122.568 35.0519C121.8 34.5825 121.17 33.9639 120.68 33.1959C120.189 32.4279 119.944 31.4465 119.944 30.2519C119.944 29.0359 120.264 27.9265 120.904 26.9239C121.565 25.8999 122.557 25.0892 123.88 24.4919C125.224 23.8732 126.92 23.5639 128.968 23.5639C130.312 23.5639 131.645 23.7345 132.968 24.0759C134.29 24.4172 135.442 24.9079 136.424 25.5479L135.112 28.7799C134.109 28.1825 133.074 27.7452 132.008 27.4679C130.941 27.1692 129.917 27.0199 128.936 27.0199C127.784 27.0199 126.845 27.1585 126.12 27.4359C125.416 27.7132 124.893 28.0759 124.552 28.5239C124.232 28.9719 124.072 29.4839 124.072 30.0599C124.072 30.7425 124.306 31.2972 124.776 31.7239C125.266 32.1292 125.896 32.4492 126.664 32.6839C127.453 32.9185 128.328 33.1532 129.288 33.3879C130.248 33.6012 131.197 33.8465 132.136 34.1239C133.096 34.4012 133.96 34.7639 134.728 35.2119C135.517 35.6599 136.146 36.2679 136.616 37.0359C137.106 37.8039 137.352 38.7745 137.352 39.9479C137.352 41.1425 137.021 42.2519 136.36 43.2759C135.72 44.2785 134.728 45.0892 133.384 45.7079C132.04 46.3052 130.344 46.6039 128.296 46.6039Z" fill="url(#paint0_linear_30_1398)"/>
<g opacity="0.6">
<path d="M47.4846 0H64.882L35.5082 33.5322L65 69L47.4846 68.9431L19 35.5247L21.0051 33.5322L19 31.5396L30.0871 19.4703L47.4846 0Z" fill="url(#paint1_linear_30_1398)"/>
<path d="M39.4089 33.6834L27.2721 45.1205L17.752 54.1744L0.651026 54.1744L21.1017 33.7466L0.651028 14.2241L18.8686 14.2241L27.3309 22.3726L39.4089 33.6834Z" fill="url(#paint2_linear_30_1398)"/>
</g>
<defs>
<linearGradient id="paint0_linear_30_1398" x1="139" y1="39.4968" x2="49" y2="39.4968" gradientUnits="userSpaceOnUse">
<stop offset="0.432692" stop-color="#9E69C7"/>
<stop offset="0.836538" stop-color="#3A0464"/>
</linearGradient>
<linearGradient id="paint1_linear_30_1398" x1="10.8087" y1="37.9014" x2="68.0094" y2="36.8651" gradientUnits="userSpaceOnUse">
<stop offset="0.389423" stop-color="#3A0464"/>
<stop offset="0.807692" stop-color="#7828B7"/>
</linearGradient>
<linearGradient id="paint2_linear_30_1398" x1="19.4586" y1="13.9399" x2="19.9028" y2="54.1403" gradientUnits="userSpaceOnUse">
<stop offset="0.225962" stop-color="#762FAD"/>
<stop offset="0.538462" stop-color="#3A0464"/>
</linearGradient>
</defs>
</svg>
