<svg width="80" height="81" viewBox="0 0 80 81" fill="none" xmlns="http://www.w3.org/2000/svg">
<g filter="url(#filter0_d_8_515)">
<path d="M26.6667 33.3333V23.3333C26.6667 15.9667 32.6333 10 40 10C47.3667 10 53.3333 15.9667 53.3333 23.3333V33.3333M40 50C40.8841 50 41.7319 49.6488 42.357 49.0237C42.9821 48.3986 43.3333 47.5507 43.3333 46.6667C43.3333 45.7826 42.9821 44.9348 42.357 44.3096C41.7319 43.6845 40.8841 43.3333 40 43.3333C39.116 43.3333 38.2681 43.6845 37.643 44.3096C37.0179 44.9348 36.6667 45.7826 36.6667 46.6667C36.6667 47.5507 37.0179 48.3986 37.643 49.0237C38.2681 49.6488 39.116 50 40 50ZM40 50V60M22 33.3333H58C60.9333 33.3333 63.3333 35.7333 63.3333 38.6667V62C63.3333 66.4 59.7333 70 55.3333 70H24.6667C20.2667 70 16.6667 66.4 16.6667 62V38.6667C16.6667 35.7333 19.0667 33.3333 22 33.3333Z" stroke="url(#paint0_linear_8_515)" stroke-width="5" stroke-miterlimit="10" stroke-linecap="round" stroke-linejoin="round"/>
</g>
<defs>
<filter id="filter0_d_8_515" x="-4" y="0" width="88" height="88" filterUnits="userSpaceOnUse" color-interpolation-filters="sRGB">
<feFlood flood-opacity="0" result="BackgroundImageFix"/>
<feColorMatrix in="SourceAlpha" type="matrix" values="0 0 0 0 0 0 0 0 0 0 0 0 0 0 0 0 0 0 127 0" result="hardAlpha"/>
<feOffset dy="4"/>
<feGaussianBlur stdDeviation="2"/>
<feComposite in2="hardAlpha" operator="out"/>
<feColorMatrix type="matrix" values="0 0 0 0 0 0 0 0 0 0 0 0 0 0 0 0 0 0 0.25 0"/>
<feBlend mode="normal" in2="BackgroundImageFix" result="effect1_dropShadow_8_515"/>
<feBlend mode="normal" in="SourceGraphic" in2="effect1_dropShadow_8_515" result="shape"/>
</filter>
<linearGradient id="paint0_linear_8_515" x1="40" y1="10" x2="40" y2="70" gradientUnits="userSpaceOnUse">
<stop offset="0.269231" stop-color="#713B9C"/>
<stop offset="0.879808" stop-color="#400041"/>
</linearGradient>
</defs>
</svg>
