<svg width="80" height="80" viewBox="0 0 80 80" fill="none" xmlns="http://www.w3.org/2000/svg">
<g filter="url(#filter0_d_8_507)">
<path d="M34.6062 8.16881C35.9771 7.20687 37.584 6.68516 39.2314 6.66715C40.8788 6.64914 42.4957 7.13561 43.8853 8.06738L55.655 15.9553H60.5C61.2514 15.9553 61.9721 16.2696 62.5035 16.8291C63.0348 17.3886 63.3333 18.1474 63.3333 18.9386V45.7886C63.3333 46.5799 63.0348 47.3387 62.5035 47.8982C61.9721 48.4577 61.2514 48.772 60.5 48.772H56.1933C56.2842 50.2247 55.9923 51.6756 55.3499 52.9648C54.7075 54.254 53.7394 55.3314 52.5525 56.0781L38.1223 65.1952C37.2357 65.7549 36.2205 66.0486 35.1867 66.0444C34.1529 66.0402 33.1399 65.7383 32.2573 65.1713C31.2633 66.0961 29.9926 66.6244 28.6667 66.6642C27.3408 66.704 26.0436 66.2528 25.0012 65.3891L10.4378 53.3394C9.41982 52.4984 8.70586 51.3158 8.41463 49.9882C8.12341 48.6607 8.27245 47.2682 8.83699 46.0422C8.16041 45.4837 7.6134 44.7704 7.23738 43.9563C6.86136 43.1422 6.6662 42.2487 6.66666 41.3435V18.9386C6.66666 18.1474 6.96517 17.3886 7.49652 16.8291C8.02787 16.2696 8.74854 15.9553 9.49999 15.9553H23.5165L34.6062 8.16881ZM12.8235 41.7492L14.7842 39.9443C16.4597 38.401 18.6435 37.6114 20.866 37.7453C23.0885 37.8792 25.1725 38.9258 26.67 40.6603L34.3257 49.5268C35.5262 50.9172 36.2806 52.6703 36.482 54.5374C36.6834 56.4046 36.3215 58.2911 35.4477 59.9296L49.6398 50.9647C50.0098 50.7285 50.2905 50.3645 50.4342 49.9347C50.5778 49.5049 50.5754 49.036 50.4275 48.6079L37.8843 30.1172C37.5408 29.6104 37.0554 29.2295 36.496 29.0278C35.9366 28.8261 35.3312 28.8138 34.7648 28.9925L27.7212 31.2151C26.2512 31.6793 24.6894 31.7158 23.2013 31.3208C21.7133 30.9259 20.3546 30.1141 19.2693 28.9716L18.4392 28.1005C17.6862 27.3078 17.1606 26.3077 16.9226 25.215C16.6845 24.1222 16.7437 22.9809 17.0933 21.922H12.3333V41.3435L12.8235 41.7492ZM40.8452 13.1032C40.3814 12.7921 39.8416 12.6298 39.2917 12.6362C38.7418 12.6425 38.2055 12.8173 37.7483 13.139L22.4483 23.879L23.2757 24.7532C23.6378 25.134 24.0911 25.4044 24.5875 25.5357C25.0839 25.6671 25.6048 25.6544 26.0948 25.499L33.1357 23.2764C34.8346 22.74 36.6504 22.7766 38.3286 23.3811C40.0067 23.9856 41.4633 25.1278 42.4942 26.6476L53.4592 42.8053H57.6667V21.922H55.6578C54.5798 21.9218 53.5241 21.5979 52.6148 20.9882L40.8452 13.1032ZM18.5128 44.4312L13.9342 48.6496L28.4975 60.6993L30.495 57.0239C30.7918 56.4764 30.9163 55.8441 30.8506 55.2176C30.785 54.591 30.5325 54.0025 30.1295 53.5363L22.4767 44.6699C21.9775 44.092 21.2831 43.7433 20.5425 43.6987C19.8018 43.6541 19.0713 43.9171 18.5128 44.4312Z" fill="url(#paint0_linear_8_507)"/>
</g>
<defs>
<filter id="filter0_d_8_507" x="-4" y="0" width="88" height="88" filterUnits="userSpaceOnUse" color-interpolation-filters="sRGB">
<feFlood flood-opacity="0" result="BackgroundImageFix"/>
<feColorMatrix in="SourceAlpha" type="matrix" values="0 0 0 0 0 0 0 0 0 0 0 0 0 0 0 0 0 0 127 0" result="hardAlpha"/>
<feOffset dy="4"/>
<feGaussianBlur stdDeviation="2"/>
<feComposite in2="hardAlpha" operator="out"/>
<feColorMatrix type="matrix" values="0 0 0 0 0 0 0 0 0 0 0 0 0 0 0 0 0 0 0.25 0"/>
<feBlend mode="normal" in2="BackgroundImageFix" result="effect1_dropShadow_8_507"/>
<feBlend mode="normal" in="SourceGraphic" in2="effect1_dropShadow_8_507" result="shape"/>
</filter>
<linearGradient id="paint0_linear_8_507" x1="35" y1="6.66667" x2="35" y2="66.6667" gradientUnits="userSpaceOnUse">
<stop offset="0.269231" stop-color="#713B9C"/>
<stop offset="0.879808" stop-color="#400041"/>
</linearGradient>
</defs>
</svg>
