<svg width="80" height="83" viewBox="0 0 80 83" fill="none" xmlns="http://www.w3.org/2000/svg">
<g filter="url(#filter0_d_8_511)">
<path d="M48.9286 5.71429C51.6919 5.71453 54.3551 6.74835 56.3948 8.61255C58.4346 10.4767 59.7032 13.0365 59.9514 15.7886C62.4717 16.062 64.8549 17.0743 66.8014 18.6984C68.7479 20.3224 70.1709 22.4856 70.8915 24.916C71.6121 27.3465 71.5981 29.9357 70.8513 32.3583C70.1045 34.7808 68.6582 36.9285 66.6943 38.5314C69.3643 39.8454 71.5284 42.0006 72.8534 44.665C74.1785 47.3295 74.591 50.3557 74.0276 53.2777C73.4642 56.1996 71.956 58.8554 69.7353 60.8362C67.5145 62.817 64.7043 64.0129 61.7372 64.24L61.6229 64.7829C61.1315 67.0743 59.9808 69.172 58.3125 70.8179C56.6442 72.4637 54.5311 73.5859 52.2332 74.0462C49.9353 74.5065 47.553 74.2849 45.3795 73.4086C43.206 72.5323 41.3361 71.0396 40 69.1143C38.6641 71.0396 36.7945 72.5324 34.6211 73.4088C32.4478 74.2853 30.0656 74.5071 27.7678 74.0471C25.47 73.5872 23.3568 72.4654 21.6884 70.8199C20.0199 69.1744 18.8689 67.0769 18.3772 64.7857L18.2629 64.2429C15.2929 64.0208 12.4785 62.8274 10.254 60.847C8.02956 58.8666 6.51866 56.2092 5.95446 53.2848C5.39025 50.3604 5.80411 47.3316 7.13216 44.6658C8.46022 42 10.6287 39.8453 13.3029 38.5343C11.3389 36.9314 9.89265 34.7837 9.14586 32.3611C8.39907 29.9386 8.38509 27.3494 9.10567 24.9189C9.82626 22.4884 11.2493 20.3252 13.1958 18.7012C15.1423 17.0772 17.5255 16.0648 20.0457 15.7914C20.2466 13.551 21.1253 11.425 22.5648 9.6965C24.0043 7.96802 25.9363 6.71916 28.1034 6.11626C30.2705 5.51335 32.5698 5.58503 34.6952 6.32174C36.8205 7.05845 38.671 8.42522 40 10.24C41.0274 8.83656 42.3714 7.69528 43.9228 6.90891C45.4742 6.12253 47.1893 5.71324 48.9286 5.71429ZM31.0714 10C29.2718 10 27.5458 10.7149 26.2732 11.9875C25.0006 13.2601 24.2857 14.986 24.2857 16.7857V17.8571C24.2857 18.4255 24.06 18.9705 23.6581 19.3724C23.2562 19.7742 22.7112 20 22.1429 20H21.4286C19.1553 20 16.9751 20.9031 15.3677 22.5105C13.7602 24.118 12.8572 26.2981 12.8572 28.5714C12.8572 30.8447 13.7602 33.0249 15.3677 34.6323C16.9751 36.2398 19.1553 37.1429 21.4286 37.1429H22.1429C24.2267 37.1429 26.2252 37.9707 27.6987 39.4442C29.1722 40.9177 30 42.9162 30 45V46.0857C31.4339 46.5871 32.6436 47.5804 33.4145 48.8893C34.1853 50.1982 34.4673 51.7379 34.2103 53.235C33.9534 54.7322 33.1741 56.0898 32.011 57.0667C30.8479 58.0437 29.3761 58.5768 27.8572 58.5714C26.3426 58.5689 24.8775 58.0317 23.7203 57.0546C22.5631 56.0774 21.788 54.723 21.5318 53.2303C21.2756 51.7375 21.5547 50.2022 22.3199 48.8951C23.0851 47.588 24.2872 46.5931 25.7143 46.0857V45C25.7143 43.0286 24.1143 41.4286 22.1429 41.4286H19.2857C16.823 41.4286 14.4611 42.4069 12.7197 44.1483C10.9783 45.8897 10 48.2516 10 50.7143C10 53.177 10.9783 55.5389 12.7197 57.2803C14.4611 59.0217 16.823 60 19.2857 60H20C20.4265 60 20.8433 60.1272 21.197 60.3654C21.5507 60.6036 21.8254 60.942 21.9857 61.3371L22.0943 61.6943L22.5629 63.8886C22.9656 65.7536 24.0436 67.404 25.5895 68.5223C27.1354 69.6407 29.0401 70.1482 30.9375 69.9472C32.835 69.7462 34.5911 68.851 35.8684 67.4336C37.1457 66.0161 37.854 64.1766 37.8572 62.2686V30H33.9143C33.4129 31.4339 32.4196 32.6436 31.1107 33.4145C29.8018 34.1853 28.2621 34.4673 26.765 34.2103C25.2678 33.9534 23.9103 33.1741 22.9333 32.011C21.9563 30.8479 21.4232 29.3761 21.4286 27.8571C21.4311 26.3426 21.9683 24.8775 22.9454 23.7203C23.9226 22.5631 25.277 21.788 26.7697 21.5318C28.2625 21.2756 29.7978 21.5547 31.1049 22.3199C32.412 23.0851 33.4069 24.2872 33.9143 25.7143H37.8572V16.7857C37.8572 14.986 37.1422 13.2601 35.8697 11.9875C34.5971 10.7149 32.8711 10 31.0714 10ZM61.0486 41.4343C60.7284 42.3341 60.2117 43.1513 59.5361 43.8264C58.8605 44.5015 58.0429 45.0176 57.1429 45.3371V46.4286C57.1429 47.4604 56.9396 48.4821 56.5448 49.4354C56.1499 50.3886 55.5712 51.2548 54.8416 51.9844C54.112 52.714 53.2458 53.2928 52.2925 53.6876C51.3392 54.0825 50.3175 54.2857 49.2857 54.2857H42.1429V62.2686C42.1426 64.1782 42.8491 66.0204 44.1263 67.4401C45.4034 68.8599 47.1608 69.7567 49.0598 69.9579C50.9588 70.1591 52.8651 69.6504 54.4113 68.5297C55.9576 67.4091 57.0344 65.7559 57.4343 63.8886L57.9057 61.6943L58.0143 61.3371C58.1746 60.942 58.4493 60.6036 58.803 60.3654C59.1568 60.1272 59.5735 60 60 60H60.7143C63.1496 60.0023 65.4883 59.0478 67.2265 57.3422C68.9647 55.6365 69.9633 53.3163 70.0072 50.8815C70.051 48.4466 69.1366 46.0919 67.4609 44.3248C65.7852 42.5578 63.4824 41.5197 61.0486 41.4343ZM27.8572 50C27.2888 50 26.7438 50.2258 26.3419 50.6276C25.9401 51.0295 25.7143 51.5745 25.7143 52.1429C25.7143 52.7112 25.9401 53.2562 26.3419 53.6581C26.7438 54.0599 27.2888 54.2857 27.8572 54.2857C28.4255 54.2857 28.9705 54.0599 29.3724 53.6581C29.7742 53.2562 30 52.7112 30 52.1429C30 51.5745 29.7742 51.0295 29.3724 50.6276C28.9705 50.2258 28.4255 50 27.8572 50ZM48.9286 10C47.1289 10 45.4029 10.7149 44.1304 11.9875C42.8578 13.2601 42.1429 14.986 42.1429 16.7857V50H49.2857C51.2571 50 52.8572 48.4 52.8572 46.4286V45.3371C51.4274 44.8329 50.2221 43.8391 49.4545 42.5316C48.687 41.2241 48.4067 39.6873 48.6633 38.1931C48.9199 36.6988 49.6967 35.3435 50.8564 34.367C52.0161 33.3904 53.4839 32.8556 55 32.8571C57.6714 32.8571 59.96 34.4857 60.9314 36.8057C62.9176 36.2366 64.6313 34.9691 65.7568 33.2365C66.8824 31.5039 67.344 29.423 67.0567 27.377C66.7694 25.331 65.7525 23.4577 64.1932 22.1021C62.634 20.7466 60.6375 20 58.5714 20H57.8572C57.2888 20 56.7438 19.7742 56.3419 19.3724C55.9401 18.9705 55.7143 18.4255 55.7143 17.8571V16.7857C55.7143 14.986 54.9994 13.2601 53.7268 11.9875C52.4542 10.7149 50.7283 10 48.9286 10ZM55 37.1429C54.4317 37.1429 53.8866 37.3686 53.4848 37.7705C53.0829 38.1724 52.8572 38.7174 52.8572 39.2857C52.8572 39.854 53.0829 40.3991 53.4848 40.8009C53.8866 41.2028 54.4317 41.4286 55 41.4286C55.5683 41.4286 56.1134 41.2028 56.5152 40.8009C56.9171 40.3991 57.1429 39.854 57.1429 39.2857C57.1429 38.7174 56.9171 38.1724 56.5152 37.7705C56.1134 37.3686 55.5683 37.1429 55 37.1429ZM27.8572 25.7143C27.2888 25.7143 26.7438 25.9401 26.3419 26.3419C25.9401 26.7438 25.7143 27.2888 25.7143 27.8571C25.7143 28.4255 25.9401 28.9705 26.3419 29.3724C26.7438 29.7742 27.2888 30 27.8572 30C28.4255 30 28.9705 29.7742 29.3724 29.3724C29.7742 28.9705 30 28.4255 30 27.8571C30 27.2888 29.7742 26.7438 29.3724 26.3419C28.9705 25.9401 28.4255 25.7143 27.8572 25.7143Z" fill="url(#paint0_linear_8_511)"/>
</g>
<defs>
<filter id="filter0_d_8_511" x="-4" y="0" width="88" height="88" filterUnits="userSpaceOnUse" color-interpolation-filters="sRGB">
<feFlood flood-opacity="0" result="BackgroundImageFix"/>
<feColorMatrix in="SourceAlpha" type="matrix" values="0 0 0 0 0 0 0 0 0 0 0 0 0 0 0 0 0 0 127 0" result="hardAlpha"/>
<feOffset dy="4"/>
<feGaussianBlur stdDeviation="2"/>
<feComposite in2="hardAlpha" operator="out"/>
<feColorMatrix type="matrix" values="0 0 0 0 0 0 0 0 0 0 0 0 0 0 0 0 0 0 0.25 0"/>
<feBlend mode="normal" in2="BackgroundImageFix" result="effect1_dropShadow_8_511"/>
<feBlend mode="normal" in="SourceGraphic" in2="effect1_dropShadow_8_511" result="shape"/>
</filter>
<linearGradient id="paint0_linear_8_511" x1="39.991" y1="5.71127" x2="39.991" y2="74.2809" gradientUnits="userSpaceOnUse">
<stop offset="0.269231" stop-color="#713B9C"/>
<stop offset="0.879808" stop-color="#400041"/>
</linearGradient>
</defs>
</svg>
