<svg width="71" height="71" viewBox="0 0 71 71" fill="none" xmlns="http://www.w3.org/2000/svg">
<path d="M43.3 28H27.7C21.2383 28 16 32.9888 16 39.1429V42.8571C16 49.0112 21.2383 54 27.7 54H43.3C49.7617 54 55 49.0112 55 42.8571V39.1429C55 32.9888 49.7617 28 43.3 28Z" fill="#241634" stroke="#7A43D6" stroke-width="1.5"/>
<path d="M29.2188 43.4375C30.4441 43.4375 31.4375 42.4441 31.4375 41.2188C31.4375 39.9934 30.4441 39 29.2188 39C27.9934 39 27 39.9934 27 41.2188C27 42.4441 27.9934 43.4375 29.2188 43.4375Z" fill="#C7A6FF"/>
<path d="M41.052 43.4375C42.2774 43.4375 43.2708 42.4441 43.2708 41.2188C43.2708 39.9934 42.2774 39 41.052 39C39.8266 39 38.8333 39.9934 38.8333 41.2188C38.8333 42.4441 39.8266 43.4375 41.052 43.4375Z" fill="#C7A6FF"/>
<path d="M26 22H45M35.5 22V13" stroke="#A46CFF" stroke-width="1.5" stroke-linecap="round"/>
</svg>
