<svg width="42" height="43" viewBox="0 0 42 43" fill="none" xmlns="http://www.w3.org/2000/svg">
<path d="M28 12.5415H14C11.1005 12.5415 8.75 14.948 8.75 17.9165V26.8748C8.75 29.8434 11.1005 32.2498 14 32.2498H28C30.8995 32.2498 33.25 29.8434 33.25 26.8748V17.9165C33.25 14.948 30.8995 12.5415 28 12.5415Z" fill="#1A2238" stroke="#4E7DFF" stroke-width="1.5"/>
<path d="M8.75 17.9165H33.25" stroke="#8FB3FF" stroke-width="1.5"/>
<path d="M14 8.9585V14.3335M28 8.9585V14.3335" stroke="#4E7DFF" stroke-width="1.5" stroke-linecap="round"/>
<path d="M15.75 24.6353C16.4749 24.6353 17.0625 24.0336 17.0625 23.2915C17.0625 22.5494 16.4749 21.9478 15.75 21.9478C15.0251 21.9478 14.4375 22.5494 14.4375 23.2915C14.4375 24.0336 15.0251 24.6353 15.75 24.6353Z" fill="#8FB3FF"/>
<path d="M21 24.6353C21.7249 24.6353 22.3125 24.0336 22.3125 23.2915C22.3125 22.5494 21.7249 21.9478 21 21.9478C20.2751 21.9478 19.6875 22.5494 19.6875 23.2915C19.6875 24.0336 20.2751 24.6353 21 24.6353Z" fill="#8FB3FF"/>
<path d="M26.25 24.6353C26.9749 24.6353 27.5625 24.0336 27.5625 23.2915C27.5625 22.5494 26.9749 21.9478 26.25 21.9478C25.5251 21.9478 24.9375 22.5494 24.9375 23.2915C24.9375 24.0336 25.5251 24.6353 26.25 24.6353Z" fill="#8FB3FF"/>
</svg>
