<svg width="42" height="39" viewBox="0 0 42 39" fill="none" xmlns="http://www.w3.org/2000/svg">
<path d="M14 22.75C15.933 22.75 17.5 21.2949 17.5 19.5C17.5 17.7051 15.933 16.25 14 16.25C12.067 16.25 10.5 17.7051 10.5 19.5C10.5 21.2949 12.067 22.75 14 22.75Z" fill="#2A1F42" stroke="#A46CFF" stroke-width="1.5"/>
<path d="M28 16.25C29.933 16.25 31.5 14.7949 31.5 13C31.5 11.2051 29.933 9.75 28 9.75C26.067 9.75 24.5 11.2051 24.5 13C24.5 14.7949 26.067 16.25 28 16.25Z" fill="#2A1F42" stroke="#A46CFF" stroke-width="1.5"/>
<path d="M28 29.25C29.933 29.25 31.5 27.7949 31.5 26C31.5 24.2051 29.933 22.75 28 22.75C26.067 22.75 24.5 24.2051 24.5 26C24.5 27.7949 26.067 29.25 28 29.25Z" fill="#2A1F42" stroke="#A46CFF" stroke-width="1.5"/>
<path d="M24.5 13L17.5 19.5L24.5 26" stroke="#C7A6FF" stroke-width="1.5" stroke-linecap="round"/>
</svg>
