<svg width="34" height="32" viewBox="0 0 34 32" fill="none" xmlns="http://www.w3.org/2000/svg">
<path d="M17 26.6668C23.2592 26.6668 28.3333 21.8912 28.3333 16.0002C28.3333 10.1091 23.2592 5.3335 17 5.3335C10.7407 5.3335 5.66663 10.1091 5.66663 16.0002C5.66663 21.8912 10.7407 26.6668 17 26.6668Z" stroke="#A46CFF" stroke-width="1.5"/>
<path d="M17 10.6667C17.7824 10.6667 18.4167 10.0697 18.4167 9.33333C18.4167 8.59695 17.7824 8 17 8C16.2176 8 15.5834 8.59695 15.5834 9.33333C15.5834 10.0697 16.2176 10.6667 17 10.6667Z" fill="#A46CFF"/>
<path d="M24.0834 17.3332C24.8658 17.3332 25.5 16.7362 25.5 15.9998C25.5 15.2635 24.8658 14.6665 24.0834 14.6665C23.301 14.6665 22.6667 15.2635 22.6667 15.9998C22.6667 16.7362 23.301 17.3332 24.0834 17.3332Z" fill="#A46CFF"/>
<path d="M17 24.0002C17.7824 24.0002 18.4167 23.4032 18.4167 22.6668C18.4167 21.9304 17.7824 21.3335 17 21.3335C16.2176 21.3335 15.5834 21.9304 15.5834 22.6668C15.5834 23.4032 16.2176 24.0002 17 24.0002Z" fill="#A46CFF"/>
<path d="M9.91667 17.3332C10.6991 17.3332 11.3333 16.7362 11.3333 15.9998C11.3333 15.2635 10.6991 14.6665 9.91667 14.6665C9.13426 14.6665 8.5 15.2635 8.5 15.9998C8.5 16.7362 9.13426 17.3332 9.91667 17.3332Z" fill="#A46CFF"/>
<path d="M17 9.3335V16.0002M17 16.0002H24.0833M17 16.0002V22.6668M17 16.0002H9.91663" stroke="#C7A6FF" stroke-width="1.5" stroke-linecap="round"/>
</svg>
