<svg width="113" height="95" viewBox="0 0 113 95" fill="none" xmlns="http://www.w3.org/2000/svg">
<path d="M56 62.0418C67.2759 62.0418 76.4167 53.2927 76.4167 42.5002C76.4167 31.7076 67.2759 22.9585 56 22.9585C44.7242 22.9585 35.5834 31.7076 35.5834 42.5002C35.5834 53.2927 44.7242 62.0418 56 62.0418Z" fill="#1A1428" stroke="#7A43D6" stroke-width="1.5"/>
<path d="M56 49.4793C60.0271 49.4793 63.2917 46.3546 63.2917 42.5002C63.2917 38.6457 60.0271 35.521 56 35.521C51.973 35.521 48.7084 38.6457 48.7084 42.5002C48.7084 46.3546 51.973 49.4793 56 49.4793Z" fill="#A46CFF" fill-opacity="0.25" stroke="#C7A6FF"/>
<path d="M56 22.9583V17.375M56 67.625V62.0417M35.5833 42.5H29.75M82.25 42.5H76.4167" stroke="#A46CFF" stroke-width="1.5" stroke-linecap="round"/>
<path d="M47.25 36.9165L53.0833 42.4998L47.25 48.0832" stroke="#C7A6FF" stroke-width="1.5" stroke-linecap="round" stroke-linejoin="round"/>
<path d="M64.75 36.9165L58.9166 42.4998L64.75 48.0832" stroke="#C7A6FF" stroke-width="1.5" stroke-linecap="round" stroke-linejoin="round"/>
</svg>
