<svg width="23" height="16" viewBox="0 0 23 16" fill="none" xmlns="http://www.w3.org/2000/svg">
<path d="M11.5591 14.6902C17.759 15.5894 24.5843 12.8917 21 9.74434C21 6.76451 16.9241 1 13.5 1C10.0759 1 1 6.76451 1 9.74434C1 12.7242 4.87491 16.0391 11.5591 14.6902Z" fill="#7A43D6"/>
<path d="M4.6986 15H17.6747C18.8218 15 19.922 14.5095 20.7331 13.6365C21.5443 12.7634 22 11.5793 22 10.3446C22 9.10995 21.5443 7.92583 20.7331 7.05278C19.922 6.17973 18.8218 5.68925 17.6747 5.68925C17.4505 4.47022 16.8696 3.36045 16.017 2.52241C15.1645 1.68437 14.0851 1.16207 12.9369 1.03198C11.7886 0.90189 10.6318 1.17084 9.63587 1.79946C8.63991 2.42808 7.85706 3.38334 7.40195 4.52541C6.1114 4.13957 4.7313 4.32132 3.56526 5.03068C2.39921 5.74003 1.54274 6.91889 1.18426 8.3079C0.82577 9.69692 0.994635 11.1823 1.6537 12.4373C2.31277 13.6923 3.40805 14.6142 4.6986 15Z" stroke="#7A43D6" stroke-width="2" stroke-linecap="round" stroke-linejoin="round"/>
</svg>
