<svg width="23" height="16" viewBox="0 0 23 16" fill="none" xmlns="http://www.w3.org/2000/svg">
<path d="M10.5591 15.0684C16.759 15.9676 25.0843 13.2699 21.5 10.1225C21.5 7.14268 15.9241 1.37817 12.5 1.37817C9.07592 1.37817 0 7.14268 0 10.1225C0 13.1024 3.8749 16.4172 10.5591 15.0684Z" fill="#4E7DFF"/>
<path d="M4.6986 15H17.6747C18.8218 15 19.922 14.5095 20.7331 13.6365C21.5443 12.7634 22 11.5793 22 10.3446C22 9.10995 21.5443 7.92583 20.7331 7.05278C19.922 6.17973 18.8218 5.68925 17.6747 5.68925C17.4505 4.47022 16.8696 3.36045 16.017 2.52241C15.1645 1.68437 14.0851 1.16207 12.9369 1.03198C11.7886 0.90189 10.6318 1.17084 9.63587 1.79946C8.63991 2.42808 7.85706 3.38334 7.40195 4.52541C6.1114 4.13957 4.7313 4.32132 3.56526 5.03068C2.39921 5.74003 1.54274 6.91889 1.18426 8.3079C0.82577 9.69692 0.994635 11.1823 1.6537 12.4373C2.31277 13.6923 3.40805 14.6142 4.6986 15Z" stroke="#4E7DFF" stroke-width="2" stroke-linecap="round" stroke-linejoin="round"/>
</svg>
