<svg width="48" height="48" viewBox="0 0 48 48" fill="none" xmlns="http://www.w3.org/2000/svg">
<path d="M14 14V26C14 29 18 32 24 32C30 32 34 29 34 26V14" fill="#1A2238"/>
<path d="M14 14V26C14 29 18 32 24 32C30 32 34 29 34 26V14" stroke="#4E7DFF" stroke-width="1.5"/>
<path d="M14 26C14 29 18 32 24 32C30 32 34 29 34 26" stroke="#8FB3FF" stroke-width="1.5"/>
<path d="M24 18C29.5228 18 34 16.2091 34 14C34 11.7909 29.5228 10 24 10C18.4772 10 14 11.7909 14 14C14 16.2091 18.4772 18 24 18Z" fill="#1A2238" stroke="#4E7DFF" stroke-width="1.5"/>
</svg>
